<svg width="30" height="30" viewBox="0 0 30 30" fill="none" xmlns="http://www.w3.org/2000/svg">
<path d="M11.875 17.1873C11.875 18.3998 12.8125 19.3748 13.9625 19.3748H16.3125C17.3125 19.3748 18.125 18.5248 18.125 17.4623C18.125 16.3248 17.625 15.9123 16.8875 15.6498L13.125 14.3373C12.3875 14.0748 11.8875 13.6748 11.8875 12.5248C11.8875 11.4748 12.7 10.6123 13.7 10.6123H16.05C17.2 10.6123 18.1375 11.5873 18.1375 12.7998" stroke="#95C31B" stroke-width="2" stroke-linecap="round" stroke-linejoin="round"/>
<path d="M15 9.375V20.625" stroke="#95C31B" stroke-width="2" stroke-linecap="round" stroke-linejoin="round"/>
<path d="M27.5 15C27.5 21.9 21.9 27.5 15 27.5C8.1 27.5 2.5 21.9 2.5 15C2.5 8.1 8.1 2.5 15 2.5" stroke="#95C31B" stroke-width="2" stroke-linecap="round" stroke-linejoin="round"/>
<path d="M27.5 7.5V2.5H22.5" stroke="#95C31B" stroke-width="2" stroke-linecap="round" stroke-linejoin="round"/>
<path d="M21.25 8.75L27.5 2.5" stroke="#95C31B" stroke-width="2" stroke-linecap="round" stroke-linejoin="round"/>
</svg>
